#!OML:ASF F:\VICON\USERDATA\INSTALL\Justin_Nancy\Justin_Nancy.ASF
:FULLY-SPECIFIED
:DEGREES
146
root 7.24388 15.7145 14.1824 -32.8581 70.4382 -38.4651
lowerback 18.8943 0.992584 0.406341
upperback 3.62907 2.08405 5.70698
thorax -6.86698 1.1661 5.42049
lowerneck -16.2351 -5.30816 -6.11844
upperneck 12.0453 -6.73974 6.15588
head 6.75253 -3.01128 2.25756
rclavicle -5.1802e-014 4.16205e-015
rhumerus -37.3769 26.7563 -100.083
rradius 109.484
rwrist -14.3261
rhand -11.2772 27.1254
rfingers 7.12502
rthumb 14.7534 -2.3295
lclavicle -5.1802e-014 4.16205e-015
lhumerus -55.8172 -19.5438 100.577
lradius 87.7266
lwrist 22.1443
lhand -22.0218 7.68593
lfingers 7.12502
lthumb 4.38775 37.6205
rfemur -2.54938 1.77757 12.2336
rtibia 29.8135
rfoot -22.7174 -4.71657
rtoes -28.1738
lfemur -42.3264 16.1906 -18.6536
ltibia 92.7942
lfoot -13.3523 -5.35604
ltoes -2.1501
147
root 7.59495 15.7173 14.2919 -33.3556 71.6906 -39.2401
lowerback 18.7099 1.48594 0.240774
upperback 3.35498 2.65647 5.31807
thorax -7.10623 1.44025 4.94759
lowerneck -15.9525 -5.97669 -6.37462
upperneck 12.0055 -7.72908 6.94197
head 6.79977 -3.43613 2.44347
rclavicle 2.57613e-014 4.63417e-015
rhumerus -37.1028 26.4206 -100.113
rradius 110.809
rwrist -14.4766
rhand -10.9685 27.4536
rfingers 7.12502
rthumb 15.0508 -1.97934
lclavicle 2.57613e-014 4.63417e-015
lhumerus -57.1789 -20.4662 100.55
lradius 89.2731
lwrist 22.6547
lhand -21.9021 7.53622
lfingers 7.12502
lthumb 4.50328 37.4683
rfemur -0.0258891 1.22306 11.7688
rtibia 27.711
rfoot -22.3377 -4.70626
rtoes -28.2017
lfemur -45.2514 15.983 -19.8317
ltibia 91.7665
lfoot -14.397 -5.11584
ltoes -5.06459
148
root 7.9524 15.729 14.3892 -34.3558 72.448 -40.4772
lowerback 18.4774 1.99563 0.0440332
upperback 3.23959 3.2795 5.27965
thorax -7.16897 1.74704 4.86537
lowerneck -15.8727 -6.53305 -6.87671
upperneck 12.0566 -8.4884 7.61205
head 6.9095 -3.76687 2.65096
rclavicle 5.9213e-014 6.27663e-014
rhumerus -36.9837 26.572 -99.6057
rradius 112.237
rwrist -14.7567
rhand -11.3154 27.6275
rfingers 7.12502
rthumb 14.7167 -1.83008
lclavicle 5.9213e-014 6.27663e-014
lhumerus -57.8587 -20.5305 100.785
lradius 90.3502
lwrist 23.1113
lhand -22.4796 7.55437
lfingers 7.12502
lthumb 3.94562 37.4976
rfemur 2.70707 1.44259 11.8143
rtibia 25.2393
rfoot -21.4017 -4.95709
rtoes -29.0289
lfemur -47.8525 15.8475 -20.5859
ltibia 90.3096
lfoot -15.241 -4.72735
ltoes -5.73854
149
root 8.32991 15.7594 14.4821 -35.8268 73.1559 -42.3413
lowerback 17.8073 2.36358 -0.287417
upperback 3.24785 3.70181 5.47752
thorax -6.86908 1.96329 5.18179
lowerneck -15.5864 -6.87968 -7.21667
upperneck 11.577 -8.91231 7.86164
head 6.76635 -3.97906 2.7438
rclavicle -2.0773e-014 -5.41688e-014
rhumerus -36.7591 26.7056 -98.6021
rradius 113.564
rwrist -15.3823
rhand -10.6288 27.7023
rfingers 7.12502
rthumb 15.3781 -1.70583
lclavicle -2.0773e-014 -5.41688e-014
lhumerus -58.055 -20.111 101.289
lradius 91.0186
lwrist 23.1219
lhand -23.8674 7.87007
lfingers 7.12502
lthumb 2.60542 37.8339
rfemur 5.40823 2.38145 12.2835
rtibia 22.7753
rfoot -20.1562 -5.61312
rtoes -29.9933
lfemur -50.2141 15.1573 -21.1296
ltibia 88.4856
lfoot -15.9513 -4.02237
ltoes -4.45684
150
root 8.71429 15.8 14.5746 -37.4775 74.0966 -44.3946
lowerback 17.1192 2.54522 -0.379103
upperback 3.24144 3.88392 5.27426
thorax -6.51113 2.04609 4.9866
lowerneck -15.305 -7.10509 -6.90885
upperneck 11.0849 -9.30536 8.08516
head 6.58919 -4.14984 2.73076
rclavicle -3.89866e-014 -1.39149e-014
rhumerus -36.5551 26.3716 -98.6781
rradius 114.313
rwrist -15.3472
rhand -9.91833 27.7894
rfingers 7.12502
rthumb 16.0623 -1.56482
lclavicle -3.89866e-014 -1.39149e-014
lhumerus -58.3304 -20.2812 101.516
lradius 91.7734
lwrist 22.7035
lhand -23.6072 7.39522
lfingers 7.12502
lthumb 2.8567 37.3558
rfemur 8.11408 3.18005 12.6896
rtibia 20.2746
rfoot -18.3109 -6.39028
rtoes -31.5716
lfemur -52.2241 14.2763 -21.7712
ltibia 86.2183
lfoot -16.6582 -3.20869
ltoes -3.68133
